Coordinates
version=1
nRows=19
nColumns=42
inDegrees=yes
"Units are S.I. units (second, meters, Newtons, ...)"
"If the header above contains a line with 'inDegrees', this indicates whether rotational values are in degrees (yes) or radians (no)."
endheader
time	pelvis_tilt	pelvis_list	pelvis_rotation	pelvis_tx	pelvis_ty	pelvis_tz	hip_flexion_r	hip_adduction_r	hip_rotation_r	knee_angle_r	knee_adduction_r	knee_angle_r_beta	ankle_angle_r	subtalar_angle_r	mtp_angle_r	hip_flexion_l	hip_adduction_l	hip_rotation_l	knee_angle_l	knee_adduction_l	knee_angle_l_beta	ankle_angle_l	subtalar_angle_l	mtp_angle_l	lumbar_extension	lumbar_bending	lumbar_rotation	arm_flex_r	arm_add_r	arm_rot_r	elbow_flex_r	pro_sup_r	wrist_flex_r	wrist_dev_r	arm_flex_l	arm_add_l	arm_rot_l	elbow_flex_l	pro_sup_l	wrist_flex_l	wrist_dev_l
0.155	-15.74878761	-3.854072102	-11.68225015	0.11582098	0.923385984	0.336080812	-0.48430791	-14.13382372	   10.70778516234309	   79.22461552779669	5.85288448	1.382730389	-11.32956184	6.041950821	0	   42.94655355368896	-13.51052433	-27.08093635	   16.01268460846841	4.7086539	0.27947407	   10.28578174098745	9.954172241	-10	-8.612007522	6.639850056	9.196887732	-5.023507279	-14.3341522	-24.96647649	   79.03422953882811	   90.00000000999999	0	0	-66.49074031	-20.76646913	-50.36669653	   29.65945361965861	   90.00000000999999	0	0
0.16	-15.52388107	-3.764178279	-11.25160271	0.123946053	0.919570951	0.335039423	-0.726002007	-13.96424142	   11.82050984656684	   80.91843683467584	5.85288448	1.412293148	-11.48127228	5.875912822	0	   43.69483516502220	-13.36704971	-26.12609107	   18.02803048627095	4.7086539	0.314648491	9.475167956	8.227611651	-10	-8.227651386	6.578443532	8.97620792	-5.650763695	-13.82952637	-25.49107503	   78.15431269469187	   90.00000000999999	0	0	-66.30428155	-21.21960832	-50.07212195	   29.58777706111142	   90.00000000999999	0	0
0.165	-15.30077996	-3.66286021	-10.81775612	0.13185824	0.915844573	0.333986374	-0.80621239	-13.76649358	   12.86928374685107	   82.61486632023713	5.85288448	1.441901428	-11.62692655	5.64014277	0	   44.43568572349342	-13.20593156	-25.12252539	   20.08601800145110	4.7086539	0.350567149	8.681138924	6.461573126	-10	-7.882033652	6.511847722	8.736137313	-6.278462298	-13.31104979	-26.0110832	   77.24898874837565	   90.00000000999999	0	0	-66.04041404	-21.71343122	-49.76189407	   29.54047819443942	   90.00000000999999	0	0
0.17	-15.07115023	-3.554309491	-10.38707737	0.139540438	0.912254598	0.332915782	-0.717614449	-13.54340101	   13.84999870303137	   84.31246472131845	5.85288448	1.471530109	-11.76253956	5.331433874	0	   45.14916628338661	-13.02971874	-24.08823001	   22.15973015446714	4.7086539	0.386760254	7.916853933	4.681113167	-10	-7.590512908	6.444672704	8.479643761	-6.899813898	-12.78386711	-26.51861294	   76.32037616199827	   90.00000000999999	0	0	-65.69471149	-22.23900551	-49.43287708	   29.52228960673686	   90.00000000999999	0	0
0.175	-14.82641415	-3.442875467	-9.965730499	0.146976063	0.908849239	0.331822142	-0.455376174	-13.29791199	   14.75883162591680	   86.00630574276603	5.85288448	1.501093212	-11.88451913	4.948662618	0	   45.81496943271760	-12.84114395	-23.04096269	   24.22215684720921	4.7086539	0.42275639	7.194376629	2.910311861	-10	-7.368553227	6.381672851	8.209756422	-7.507882855	-12.25311271	-27.00579048	   75.37071107568055	   90.00000000999999	0	0	-65.26334494	-22.78761752	-49.08166296	   29.53831644485287	   90.00000000999999	0	0
0.18	-14.55797475	-3.332940641	-9.559540351	0.154149247	0.905676342	0.330700462	-0.017319563	-13.03303381	   15.59218816758119	   87.68782470702307	5.85288448	1.530441255	-11.98983149	4.492848818	0	   46.41286077116226	-12.64304637	-21.99792942	   26.24663205496375	4.7086539	0.458090148	6.524280415	1.171884346	-10	-7.231379493	6.327599246	7.929513685	-8.095725729	-11.72378601	-27.46494298	   74.40236401930208	   90.00000000999999	0	0	-64.74315612	-23.35098062	-48.70464193	   29.59399897952290	   90.00000000999999	0	0
0.185	-14.25745339	-3.228793933	-9.173868441	0.161045029	0.902782485	0.32954639	0.595987018	-12.75176204	   16.34666254388078	   89.34479237112694	5.85288448	1.559360796	-12.07615276	3.967158607	0	   46.92314188469607	-12.43829312	-20.97551018	   28.20727182464714	4.7086539	0.492309767	5.915306531	-0.513130299	-10	-7.193617942	6.287052799	7.641918865	-8.656536518	-11.20063292	-27.8887874	   73.41785689837401	   90.00000000999999	0	0	-64.1317167	-23.92142994	-48.29808404	   29.69506572078296	   90.00000000999999	0	0
0.19	-13.91693445	-3.134504863	-8.813505801	0.167649538	0.900212061	0.328356311	1.381210623	-12.45701164	   17.01901377182525	   90.96141630200887	5.85288448	1.587576206	-12.1420073	3.376848012	0	   47.32712031677903	-12.22970048	-19.98903179	   30.07939794326283	4.7086539	0.524984532	5.37408392	-2.125605664	-10	-7.268931023	6.264342382	7.349905874	-9.183794619	-10.68803754	-28.27061568	   72.41987810354972	   90.00000000999999	0	0	-63.42737003	-24.49209584	-47.8582297	   29.84747716397752	   90.00000000999999	0	0
0.195	-13.52921009	-3.053801737	-8.482587013	0.173950186	0.898006354	0.327127422	2.332312076	-12.15155342	   17.60615751062721	   92.51856825366683	5.85288448	1.614753635	-12.18689206	2.729146447	0	   47.60757142831454	-12.01995615	-19.05258753	   31.83993329864980	4.7086539	0.555711671	4.904917768	-3.648496416	-10	-7.46965649	6.263351974	7.056316103	-9.671411326	-10.18992774	-28.6044695	   71.41129344457656	   90.00000000999999	0	0	-62.62925254	-25.05704944	-47.3813868	   30.05736031891301	   90.00000000999999	0	0
0.2	-13.0880177	-2.989957045	-8.184528216	0.179935839	0.896202648	0.325857787	3.440680326	-11.83795923	   18.10517169732764	   93.99413212368165	5.85288448	1.640507083	-12.21138394	2.033081643	0	   47.74917717655423	-11.81154355	-18.17890087	   33.46775717821235	4.7086539	0.584122557	4.509651903	-5.06694629	-10	-7.806461273	6.287420537	6.763886614	-10.11387041	-9.709697638	-28.8852983	   70.39515065931246	   90.00000000999999	0	0	-61.73729273	-25.61141389	-46.86403231	   30.33093434100999	   90.00000000999999	0	0
0.205	-12.58826195	-2.945683422	-7.921990436	0.185596995	0.894833405	0.324546352	4.695339232	-11.51855795	   18.51331335973155	   95.36346345864303	5.85288448	1.664406423	-12.21722452	1.29925008	0	   47.73892767345097	-11.60667	-17.37922905	   34.94401158010252	4.7086539	0.609888057	4.187608638	-6.368343518	-10	-8.288020956	6.33923801	6.475248499	-10.50635827	-9.250149047	-29.10909447	   69.37467553123530	   90.00000000999999	0	0	-60.75218706	-26.15143677	-46.30291618	   30.67442784934077	   90.00000000999999	0	0
0.21	-12.02621374	-2.923043477	-7.69686811	0.190925949	0.893925528	0.323192959	6.083220609	-11.19540387	   18.82804345882663	   96.59994824466736	5.85288448	1.685987154	-12.20737449	0.539539594	0	   47.56647279758299	-11.4072004	-16.66330121	   36.25235259138456	4.7086539	0.632722915	3.935607807	-7.54233093	-10	-8.92073546	6.42076041	6.192933251	-10.84487915	-8.813452996	-29.27300056	   68.35325817555433	   90.00000000999999	0	0	-59.67535328	-26.67452026	-45.69516517	   31.09398881923920	   90.00000000999999	0	0
0.215	-11.39967838	-2.923376681	-7.51030126	0.19591695	0.89349974	0.321798318	7.589495101	-10.87025795	   19.04705639680573	   97.67564588999321	5.85288448	1.70476162	-12.18602915	-0.233186581	0	   47.22441299648083	-11.21459912	-16.03928591	   37.37914371216506	4.7086539	0.65238913	3.748064388	-8.580777231	-10	-9.708490826	6.533146596	5.919384263	-11.12635154	-8.401131476	-29.37538462	   67.33442878795620	   90.00000000999999	0	0	-58.50886333	-27.17920756	-45.03838363	   31.59558822805137	   90.00000000999999	0	0
0.22	-10.70812655	-2.947246324	-7.362708641	0.20056634	0.8935701	0.320363977	9.197950717	-10.54458151	   19.16831094876953	   98.56199887402585	5.85288448	1.720231398	-12.15858637	-1.005432973	0	   46.70852058361210	-11.02988247	-15.51378276	   38.31359051071296	4.7086539	0.668698303	3.617161445	-9.477715376	-10	-10.65247586	6.676718811	5.656970155	-11.34868218	-8.014058744	-29.41588131	   66.32182298955182	   90.00000000999999	0	0	-57.25535867	-27.6651261	-44.33074771	   32.18491893074341	   90.00000000999999	0	0
0.225	-9.952782274	-2.994409187	-7.253838328	0.204872682	0.894143655	0.318892268	   10.89140742477311	-10.21954108	   19.19005982981150	   99.23058950700921	5.85288448	1.731900506	-12.13156006	-1.763429388	0	   46.01788515022321	-10.85358468	-15.09183346	   39.04781809031773	4.7086539	0.681512992	3.533092434	-10.22925363	-10	-11.751061	6.850948621	5.407996707	-11.51081514	-7.652480808	-29.39539759	   65.31913771416083	   90.00000000999999	0	0	-55.91795264	-28.13288963	-43.5710888	   32.86729157937391	   90.00000000999999	0	0
0.23	-9.13666381	-3.063810036	-7.182831722	0.208836864	0.89522026	0.317386246	   12.65215514396852	-9.896022447	   19.11087582254610	   99.65392265567969	5.85288448	1.739289063	-12.11243514	-2.493489354	0	   45.15497904987593	-10.68573986	-14.77694785	   39.57689449205066	4.7086539	0.690747117	3.484364482	-10.83346464	-10	-12.99974507	7.054469183	5.174714608	-11.61275441	-7.316051331	-29.31608358	   64.33007927899685	   90.00000000999999	0	0	-54.50012446	-28.58396343	-42.75896215	   33.64752974786848	   90.00000000999999	0	0
0.235	-8.264574286	-3.153602284	-7.148296856	0.212462172	0.896792544	0.315849614	   14.46240188658878	-9.57465151	   18.92967326665971	   99.80621221433574	5.85288448	1.741947017	-12.10946327	-3.182356513	0	   44.12564120277455	-10.52588212	-14.5711414	   39.89880435612179	4.7086539	0.696365504	3.458152353	-11.29025781	-10	-14.39117383	7.285113897	4.95932104	-11.65555935	-7.003881854	-29.18126989	   63.35830584630816	   90.00000000999999	0	0	-53.00561033	-29.02049828	-41.89469638	   34.52986670651318	   90.00000000999999	0	0
0.24	-7.343040957	-3.261195183	-7.148387112	0.215754345	0.898846039	0.314286639	   16.30471851575866	-9.255819443	   18.64572468447680	   99.66414862594230	5.85288448	1.73946754	-12.13140329	-3.817527322	0	   42.93897965259909	-10.37306504	-14.47498103	   40.01437793179188	4.7086539	0.698382644	3.440691381	-11.60123974	-10	-15.91523201	7.539980479	4.76395417	-11.64131365	-6.714604077	-28.99537418	   62.40736695381392	   90.00000000999999	0	0	-51.43829714	-29.44514048	-40.97942043	   35.51784646084733	   90.00000000999999	0	0
0.245	-6.380203208	-3.38332675	-7.180881914	0.218721583	0.901359451	0.312702063	   18.16246678960993	-8.939709895	   18.25867332078234	   99.20762495987873	5.85288448	1.731499699	-12.1872146	-4.387540381	0	   41.60719532894802	-10.22590124	-14.48763752	   39.92718084892157	4.7086539	0.696860767	3.417696838	-11.76956757	-10	-17.55920866	7.815518334	4.590680623	-11.57306949	-6.446441756	-28.76378006	   61.48064316419811	   90.00000000999999	0	0	-49.80212413	-29.86082623	-40.01506529	   36.61423173625362	   90.00000000999999	0	0
